<svg width="340" height="340" viewBox="0 0 340 340" fill="none" xmlns="http://www.w3.org/2000/svg">
<g clip-path="url(#clip0_423_600)">
<g clip-path="url(#clip1_423_600)">
<path d="M245.619 -57.9951C251.736 -62.712 260.264 -62.712 266.381 -57.9951L270.879 -54.5268C275.087 -51.2821 280.569 -50.1915 285.699 -51.579L291.181 -53.062C298.638 -55.079 306.517 -51.8154 310.363 -45.1167L313.191 -40.1913C315.837 -35.5833 320.485 -32.4775 325.755 -31.7965L331.388 -31.0685C339.048 -30.0785 345.078 -24.0482 346.068 -16.3876L346.796 -10.7547C347.477 -5.48501 350.583 -0.836822 355.191 1.809L360.117 4.63713C366.815 8.48339 370.079 16.3623 368.062 23.8187L366.579 29.3013C365.192 34.4305 366.282 39.9134 369.527 44.1213L372.995 48.619C377.712 54.736 377.712 63.264 372.995 69.381L369.527 73.8787C366.282 78.0865 365.192 83.5695 366.579 88.6987L368.062 94.1813C370.079 101.638 366.815 109.517 360.117 113.363L355.191 116.191C350.583 118.837 347.477 123.485 346.796 128.755L346.068 134.388C345.078 142.048 339.048 148.078 331.388 149.068L325.755 149.796C320.485 150.477 315.837 153.583 313.191 158.191L310.363 163.117C306.517 169.815 298.638 173.079 291.181 171.062L285.699 169.579C280.569 168.192 275.087 169.282 270.879 172.527L266.381 175.995C260.264 180.712 251.736 180.712 245.619 175.995L241.121 172.527C236.913 169.282 231.431 168.192 226.301 169.579L220.819 171.062C213.362 173.079 205.483 169.815 201.637 163.117L198.809 158.191C196.163 153.583 191.515 150.477 186.245 149.796L180.612 149.068C172.952 148.078 166.922 142.048 165.932 134.388L165.204 128.755C164.523 123.485 161.417 118.837 156.809 116.191L151.883 113.363C145.185 109.517 141.921 101.638 143.938 94.1813L145.421 88.6987C146.808 83.5695 145.718 78.0866 142.473 73.8787L139.005 69.381C134.288 63.264 134.288 54.736 139.005 48.619L142.473 44.1213C145.718 39.9134 146.808 34.4305 145.421 29.3013L143.938 23.8187C141.921 16.3623 145.185 8.48339 151.883 4.63713L156.809 1.809C161.417 -0.836821 164.523 -5.48501 165.204 -10.7547L165.932 -16.3876C166.922 -24.0482 172.952 -30.0785 180.612 -31.0685L186.245 -31.7965C191.515 -32.4775 196.163 -35.5833 198.809 -40.1913L201.637 -45.1167C205.483 -51.8154 213.362 -55.079 220.819 -53.062L226.301 -51.579C231.431 -50.1915 236.913 -51.2821 241.121 -54.5268L245.619 -57.9951Z" fill="var(--icon)"/>
<path d="M128.231 272C165.107 272 196.361 303.901 177.587 335.639C176.786 336.995 175.957 338.337 175.103 339.664C162.113 359.842 143.589 375.853 121.745 385.787C99.9002 395.721 75.6579 399.157 51.9134 395.685C28.1688 392.212 5.92549 381.979 -12.1599 366.206C-30.2452 350.433 -43.4082 329.788 -50.0767 306.736C-56.7452 283.684 -56.6373 259.2 -49.766 236.207C-42.8946 213.215 -29.5502 192.687 -11.3266 177.074C-10.1276 176.047 -8.91076 175.043 -7.67693 174.065C21.2141 151.15 57.0685 177.777 62.0824 214.31V214.31C66.6193 247.367 94.8639 272 128.231 272V272Z" fill="var(--icon)"/>
</g>
</g>
<defs>
<clipPath id="clip0_423_600">
<rect width="340" height="340" fill="white"/>
</clipPath>
<clipPath id="clip1_423_600">
<rect width="340" height="340" fill="white"/>
</clipPath>
</defs>
</svg>
