<svg width="340" height="340" viewBox="0 0 340 340" fill="none" xmlns="http://www.w3.org/2000/svg">
<g clip-path="url(#clip0_421_648)">
<path d="M159.619 53.0049C165.736 48.288 174.264 48.288 180.381 53.0049L184.879 56.4732C189.087 59.7179 194.569 60.8085 199.699 59.421L205.181 57.938C212.638 55.921 220.517 59.1846 224.363 65.8833L227.191 70.8087C229.837 75.4167 234.485 78.5225 239.755 79.2035L245.388 79.9315C253.048 80.9215 259.078 86.9518 260.068 94.6124L260.796 100.245C261.477 105.515 264.583 110.163 269.191 112.809L274.117 115.637C280.815 119.483 284.079 127.362 282.062 134.819L280.579 140.301C279.192 145.431 280.282 150.913 283.527 155.121L286.995 159.619C291.712 165.736 291.712 174.264 286.995 180.381L283.527 184.879C280.282 189.087 279.192 194.569 280.579 199.699L282.062 205.181C284.079 212.638 280.815 220.517 274.117 224.363L269.191 227.191C264.583 229.837 261.477 234.485 260.796 239.755L260.068 245.388C259.078 253.048 253.048 259.078 245.388 260.068L239.755 260.796C234.485 261.477 229.837 264.583 227.191 269.191L224.363 274.117C220.517 280.815 212.638 284.079 205.181 282.062L199.699 280.579C194.569 279.192 189.087 280.282 184.879 283.527L180.381 286.995C174.264 291.712 165.736 291.712 159.619 286.995L155.121 283.527C150.913 280.282 145.431 279.192 140.301 280.579L134.819 282.062C127.362 284.079 119.483 280.815 115.637 274.117L112.809 269.191C110.163 264.583 105.515 261.477 100.245 260.796L94.6124 260.068C86.9518 259.078 80.9215 253.048 79.9315 245.388L79.2035 239.755C78.5225 234.485 75.4167 229.837 70.8087 227.191L65.8833 224.363C59.1846 220.517 55.921 212.638 57.938 205.181L59.421 199.699C60.8085 194.569 59.7179 189.087 56.4732 184.879L53.0049 180.381C48.288 174.264 48.288 165.736 53.0049 159.619L56.4732 155.121C59.7179 150.913 60.8085 145.431 59.421 140.301L57.938 134.819C55.921 127.362 59.1846 119.483 65.8833 115.637L70.8087 112.809C75.4167 110.163 78.5225 105.515 79.2035 100.245L79.9315 94.6124C80.9215 86.9518 86.9518 80.9215 94.6124 79.9315L100.245 79.2035C105.515 78.5225 110.163 75.4167 112.809 70.8087L115.637 65.8833C119.483 59.1846 127.362 55.921 134.819 57.938L140.301 59.421C145.431 60.8085 150.913 59.7179 155.121 56.4732L159.619 53.0049Z" fill="var(--icon)"/>
</g>
<defs>
<clipPath id="clip0_421_648">
<rect width="340" height="340" fill="white"/>
</clipPath>
</defs>
</svg>
