<svg width="340" height="340" viewBox="0 0 340 340" fill="none" xmlns="http://www.w3.org/2000/svg">
<path d="M228.231 170C265.107 170 296.361 201.901 277.587 233.639C276.786 234.995 275.957 236.337 275.103 237.664C262.113 257.842 243.589 273.853 221.745 283.787C199.9 293.721 175.658 297.157 151.913 293.685C128.169 290.212 105.925 279.979 87.8401 264.206C69.7548 248.433 56.5918 227.788 49.9233 204.736C43.2548 181.684 43.3627 157.2 50.234 134.207C57.1054 111.215 70.4498 90.6866 88.6734 75.0738C89.8724 74.0465 91.0892 73.0434 92.3231 72.0648C121.214 49.1496 157.068 75.7767 162.082 112.31V112.31C166.619 145.367 194.864 170 228.231 170V170Z" fill="var(--icon)"/>
</svg>
